<mxfile host="Electron" modified="2023-09-29T05:35:25.211Z" agent="Mozilla/5.0 (Macintosh; Intel Mac OS X 10_15_7) AppleWebKit/537.36 (KHTML, like Gecko) draw.io/22.0.0 Chrome/114.0.5735.289 Electron/25.8.3 Safari/537.36" etag="4d7_RJnOUKBz-saX1hY0" version="22.0.0" type="device">
  <diagram name="페이지-1" id="j1f6eXDzV6mz6VepjURp">
    <mxGraphModel dx="1114" dy="894" grid="1" gridSize="10" guides="1" tooltips="1" connect="1" arrows="1" fold="1" page="1" pageScale="1" pageWidth="827" pageHeight="1169" math="0" shadow="0">
      <root>
        <mxCell id="0" />
        <mxCell id="1" parent="0" />
        <mxCell id="sLnlKsMnpcevblm1nPt7-1" style="edgeStyle=orthogonalEdgeStyle;rounded=0;orthogonalLoop=1;jettySize=auto;html=1;exitX=1;exitY=0.25;exitDx=0;exitDy=0;entryX=0;entryY=0.25;entryDx=0;entryDy=0;endArrow=block;endFill=1;" edge="1" parent="1" source="sLnlKsMnpcevblm1nPt7-3" target="sLnlKsMnpcevblm1nPt7-5">
          <mxGeometry relative="1" as="geometry" />
        </mxCell>
        <mxCell id="sLnlKsMnpcevblm1nPt7-2" style="edgeStyle=orthogonalEdgeStyle;rounded=0;orthogonalLoop=1;jettySize=auto;html=1;exitX=1;exitY=0.75;exitDx=0;exitDy=0;entryX=0;entryY=0.75;entryDx=0;entryDy=0;endArrow=none;endFill=0;startArrow=block;startFill=1;" edge="1" parent="1" source="sLnlKsMnpcevblm1nPt7-3" target="sLnlKsMnpcevblm1nPt7-5">
          <mxGeometry relative="1" as="geometry" />
        </mxCell>
        <mxCell id="sLnlKsMnpcevblm1nPt7-3" value="클라이언트&lt;br&gt;클래스" style="rounded=1;whiteSpace=wrap;html=1;" vertex="1" parent="1">
          <mxGeometry x="120" y="80" width="80" height="220" as="geometry" />
        </mxCell>
        <mxCell id="sLnlKsMnpcevblm1nPt7-4" style="edgeStyle=orthogonalEdgeStyle;rounded=0;orthogonalLoop=1;jettySize=auto;html=1;entryX=1;entryY=0.5;entryDx=0;entryDy=0;endArrow=block;endFill=1;" edge="1" parent="1" source="sLnlKsMnpcevblm1nPt7-5" target="sLnlKsMnpcevblm1nPt7-3">
          <mxGeometry relative="1" as="geometry" />
        </mxCell>
        <mxCell id="sLnlKsMnpcevblm1nPt7-5" value="서버&lt;br&gt;클래스" style="rounded=1;whiteSpace=wrap;html=1;" vertex="1" parent="1">
          <mxGeometry x="560" y="80" width="80" height="220" as="geometry" />
        </mxCell>
        <mxCell id="sLnlKsMnpcevblm1nPt7-6" value="메서드가 실행될 때" style="text;html=1;strokeColor=none;fillColor=none;align=center;verticalAlign=middle;whiteSpace=wrap;rounded=0;" vertex="1" parent="1">
          <mxGeometry x="198" y="115" width="110" height="20" as="geometry" />
        </mxCell>
        <mxCell id="sLnlKsMnpcevblm1nPt7-7" value="메서드가 리턴될 때" style="text;html=1;strokeColor=none;fillColor=none;align=center;verticalAlign=middle;whiteSpace=wrap;rounded=0;" vertex="1" parent="1">
          <mxGeometry x="453" y="170" width="110" height="20" as="geometry" />
        </mxCell>
        <mxCell id="sLnlKsMnpcevblm1nPt7-8" value="예외가 발생될 때" style="text;html=1;strokeColor=none;fillColor=none;align=center;verticalAlign=middle;whiteSpace=wrap;rounded=0;" vertex="1" parent="1">
          <mxGeometry x="458" y="225" width="110" height="20" as="geometry" />
        </mxCell>
        <mxCell id="sLnlKsMnpcevblm1nPt7-9" value="Around 어드바이스 실행 시점" style="text;html=1;strokeColor=#6c8ebf;fillColor=#dae8fc;align=center;verticalAlign=middle;whiteSpace=wrap;rounded=0;" vertex="1" parent="1">
          <mxGeometry x="120" y="30" width="170" height="30" as="geometry" />
        </mxCell>
        <mxCell id="sLnlKsMnpcevblm1nPt7-11" value="Around 어드바이스" style="text;html=1;strokeColor=#b85450;fillColor=#f8cecc;align=center;verticalAlign=middle;whiteSpace=wrap;rounded=0;" vertex="1" parent="1">
          <mxGeometry x="320" y="109" width="126" height="160" as="geometry" />
        </mxCell>
      </root>
    </mxGraphModel>
  </diagram>
</mxfile>
